<?xml version="1.0" encoding="UTF-8"?> <svg xmlns="http://www.w3.org/2000/svg" width="155" height="38" viewBox="0 0 155 38" fill="none"><path d="M7.58899 30.436V15.308H0V38H22.7219V30.436H7.58899Z" fill="#F6F7FA"></path><path d="M37.8324 0.157593H0V11.5036H7.56647V7.7666H30.2659V30.436H26.5052V38H37.8324V0.157593Z" fill="#F6F7FA"></path><path d="M45.4663 0.0449829H57.1538V28.2298H73.9307V37.9549H45.4663V0.0449829Z" fill="#F6F7FA"></path><path d="M81.3846 0H110.727V9.72512H93.0721V14.4526H108.228V23.4799H93.0721V37.9325H81.3621V0H81.3846Z" fill="#F6F7FA"></path><path d="M128.022 17.8294L115.591 0.157593H129.238L134.958 10.423L140.565 0.157593H153.491L141.376 17.942L154.865 37.955H140.835L134.395 26.6766L127.707 37.955H114.375L128.022 17.8519V17.8294Z" fill="#F6F7FA"></path></svg> 